<svg xmlns="http://www.w3.org/2000/svg" width="72" height="133" fill="none" viewBox="0 0 72 133">
  <g clip-path="url(#a)">
    <path fill="#090949" d="M48.133 112.877c-.31.246-.655.485-1.031.718-.986.613-2.176 1.178-3.422 1.689a40.43 40.43 0 0 1-1.082.424 59.65 59.65 0 0 1-3.351 1.136c-.384.119-2.98 3.272-3.332 3.375-1.18.345-2.555 53.966-2.945 58.752a.546.546 0 0 1-.544.5l-17.09-.25a.164.164 0 0 1-.164-.17c.17-4.823 3.91-58.514 4.65-63.097.568-4.573 3.562-16.02 3.54-17.145-.004-.29.314-.375.503-.253a.33.33 0 0 1 .104-.01c3.584.236 7.176.564 10.767.674 3.598.11 7.094-.527 10.605-1.239a.38.38 0 0 1 .094-.006c.098.007.176-.084.171-.181-.002-.059-.006-.117-.01-.176-.025-.409.613-.406.636 0 .088 1.47.906 4.928 1.075 5.253.562 1.087 1.522 3.554 2.325 7.153.226 1.015-.398 1.974-1.501 2.854l.002-.001Z"/>
    <path fill="#090949" d="m54.56 179.219-16.003-.189c-1.6-4.216-2.5-58.414-3.151-61.092-.156-.644-.306-1.076-.441-1.213-.005-.005-1.213-1.957-2.865-4.304a79.87 79.87 0 0 0-1.038-1.439 51.89 51.89 0 0 0-2.601-3.278 30.635 30.635 0 0 0 5.282-.308 54.79 54.79 0 0 0 4.034-.741 58.706 58.706 0 0 0 2.853-.709 65.52 65.52 0 0 0 5.64-1.824l.236-.089c.195-.074.53-.743.805-1.161.11-.167.208-.293.286-.325.632 2.276 1.32 4.536 1.91 6.823a78.41 78.41 0 0 1 .8 3.459c.949 4.494 1.247 8.421 1.585 10.98.063.472 4.194 52.502 2.668 55.411v-.001Z"/>
    <path fill="#fff" d="M49.13 110.989a.152.152 0 0 1-.05-.01c-4.887-2.08-4.904-6.744-4.904-6.791a.13.13 0 0 1 .13-.129c.071 0 .13.06.129.132 0 .045.023 4.539 4.747 6.548a.13.13 0 0 1-.051.25Zm-13.257 15.189a.13.13 0 0 1-.13-.125l-.232-5.245-2.558-4.112a.131.131 0 0 1 .042-.18.131.131 0 0 1 .18.042l2.594 4.169.234 5.313a.13.13 0 0 1-.125.136h-.005v.002Zm-14.469-17.201a.129.129 0 0 1-.12-.079.129.129 0 0 1 .069-.17c4.729-2.013 4.747-6.503 4.747-6.549a.13.13 0 0 1 .129-.131.13.13 0 0 1 .13.128c0 .047-.017 4.711-4.905 6.791a.13.13 0 0 1-.05.01Z"/>
    <path fill="#090949" d="M28.44 62.027s-1.109.042-1.425-1.29c-.316-1.333.713-1.798.713-1.798s-1.722-1-1.303-2.525c.419-1.524 1.8-1.351 1.8-1.351s.255-1.409 1.376-2.041c1.12-.633 2.102 0 2.102 0s1.69-1.696 4.476-.719c2.786.978 1.97 3.594 1.97 3.594s1.42.048 1.16 1.117c-.258 1.069-.853.895-.853.895s2.473 2.99-.864 4.341c-3.338 1.352-9.151-.223-9.151-.223Z"/>
    <path fill="#BCBCCC" d="m40.983 71.91-2.805-.796c-.417-.118-1.036-.192-1.295-.588-.257-.393-.228-.995-.273-1.445-.203-1.994-.249-4-.157-6.003a.27.27 0 0 0-.165-.277c-.076-.149-.243-.237-.414-.11-.68.503-1.73.643-2.547.798-.75.142-2.052.515-2.755.086a.28.28 0 0 0-.335.016.269.269 0 0 0-.208.294c.122 1.912.305 3.96.078 5.87-.122 1.02-.94 1.031-1.799 1.306-.925.295-1.975.791-2.936.921-.405.055 1.136 2.395 1.711 2.68 1.347.67 5.721 1.298 7.214 1.316 2.596.032 6.057-.527 6.785-3.503.177-.142.188-.486-.097-.567l-.002.002Z"/>
    <path fill="#090949" d="M38.005 56.24c-.222-1.03-.956-1.878-1.858-2.39-1.077-.611-2.364-.726-3.576-.597-.93.1-1.923.3-2.72.814-.703.451-1.296 1.227-1.57 2.016-.39 1.125-.137 2.48-.04 3.665a.19.19 0 0 0-.088.252c.223.58.949.667 1.484.799.87.213 1.764.338 2.659.38a13.92 13.92 0 0 0 5.223-.779c.127.085.317.064.347-.125.2-1.288.417-2.746.139-4.036Z"/>
    <path fill="#BCBCCC" d="M37.217 58.467c-.381-1.302-1.313-2.056-2.632-2.479-1.288-.414-2.78-.588-3.968.17a.456.456 0 0 0-.213.298c-1.73 1.413-2.195 3.746-1.934 5.86.18 1.47.58 3.34 1.716 4.386 1.292 1.19 3.438 1.47 4.919.486 1.208-.805 1.874-2.187 2.2-3.562.392-1.662.395-3.513-.087-5.158v-.001Z"/>
    <path fill="#BCBCCC" d="M38.177 60.577c-.24-.186-.473-.19-.684-.094-.099.748-.194 1.5-.28 2.25-.03.247-.037.529-.096.792.445.11.898-.573 1.013-.96.163-.543.617-1.546.046-1.988h.001Zm-9.381-.009c-.228-.133-.487-.15-.755.058-.57.442-.117 1.444.046 1.988.129.429.672 1.223 1.159.893-.23-.97-.44-1.94-.45-2.939Z"/>
    <path fill="#090949" d="M36.971 56.414c-.849-.963-2.53-1.09-3.72-1.053-1.284.038-2.71.27-3.694 1.165-.416.377-.672.847-.86 1.37-.157.438-.52 1.096-.463 1.605a.184.184 0 0 0-.011.063c-.002.678.03.93.763 1.167.083.028.206-.032.22-.125.153-1.027-.04-1.813.413-2.81.499-1.099 1.399-1.506 2.54-1.338.64.095 1.269.156 1.906.005a2.27 2.27 0 0 1 1.847.354c.6.439.798 1.17.979 1.854.107.402.194.81.31 1.209.041.145.113.548.288.605.33.106.653-.159.657-.437.004-.31-.343-2.692-1.175-3.632v-.002Zm19.787-7.709c-.85.162-1.703.343-2.513.645-.932.346-.935.541-.932 1.12 0 .074.295.466.51.6.498.311 1.386-.05 1.884-.195.882-.259 1.736-.613 2.595-.941.399-.152 1.216-.328 1.4-.79.465-1.174-2.536-.516-2.944-.439Zm-48.26.437c.184.461.999.637 1.4.79.858.328 1.712.682 2.594.941.498.146 1.386.507 1.885.196.214-.134.51-.525.51-.6.003-.58 0-.775-.933-1.121-.81-.302-1.663-.483-2.513-.644-.408-.078-3.408-.736-2.943.438Z"/>
    <path fill="#BCBCCC" d="M60.727 35.236a.7.7 0 0 0-.745-.348l.002-.099c.008-.572-.111-1.52-.849-1.592-.576-.057-.879.646-1.023 1.202-.148-.322-.396-.496-.804-.287-.419.214-.519.817-.62 1.224a18.843 18.843 0 0 0-.318 1.78c-.09.626-.175 1.253-.318 1.87-.07.302-.152.601-.258.893-.032.09-.09.261-.168.445.023-.152.045-.305.065-.457.077-.586.219-1.72-.338-2.149-.419-.323-.895.036-1.07.435-.345.78-.44 1.754-.637 2.585a43.547 43.547 0 0 0-.588 3.031c-.172 1.044-.926 3.365.391 4.948.14.169.34.274.367.492.116.936.263 1.866.445 2.79-.136.084.058.438.092.456l.008.037c.039.188 2.013.266 2.85.18.788-.083 2.753-1.24 2.719-1.3.06-.102-.412-1.949-.666-3.266a1.384 1.384 0 0 1 .2-1.015c1.14-1.757 1.867-10.698 1.266-11.851l-.003-.004Zm-53.98 6.257c.301 2.078.848 3.837 1.988 5.594.195.3.268.664.2 1.015-.253 1.318-.725 3.165-.665 3.266-.033.06 1.932 1.217 2.718 1.3.837.086 2.812.008 2.85-.18l.008-.037c.034-.017.228-.372.093-.456.182-.925.329-1.856.444-2.79.03-.247.046-.617.205-.822.218-.28.933-1.73.711-3.297-.303-2.14-.295-2.45-.746-4.352-.197-.83-.293-1.804-.638-2.585-.175-.397-.651-.758-1.07-.435-.557.43-.416 1.563-.338 2.15.02.151.043.304.065.456-.077-.184-.135-.355-.168-.445a7.844 7.844 0 0 1-.258-.893c-.143-.616-.227-1.243-.318-1.87-.086-.597-.174-1.194-.319-1.78-.1-.407-.2-1.009-.619-1.223-.408-.209-.655-.035-.804.286-.144-.556-.447-1.259-1.023-1.201-.739.072-.555 1.055-.614 1.624-.312 3.033-1.81 5.922-1.701 6.67l-.001.005Z"/>
    <path fill="#396E1F" d="M49.886 78.734c-.195-1.301-.774-2.593-1.246-3.813-.49-1.264-1.05-2.498-1.773-3.646a.306.306 0 0 0-.19-.14.317.317 0 0 0-.261-.174 45.303 45.303 0 0 0-6.853-.161c-.286.014-.602-.003-.878.08-.139.042-.316.105-.387.24-1.752 3.352-8.198 3.937-9.63-.02a.303.303 0 0 0-.024-.052c-.004-.157-.105-.319-.304-.334l-7.117-.55c-.126-.143-.393-.187-.54.016-1.547 2.122-2.845 4.436-3.792 6.89-.797 2.067-.866 4.233.247 6.129.106.182.175.385.198.595.296 2.745 1.187 6.662 1.76 9.365.252 1.195.531 2.384.838 3.566.252.974.418 2.155.977 3.01.432.66 7.019 1.503 8.535 1.689a.694.694 0 0 1 .478.28c1.328 1.82 8.298 5.568 16.696 4.086a.832.832 0 0 0 .686-.789c.096-2.491.461-11.647.983-21.098.102-1.866 1.887-3.24 1.598-5.166l-.001-.003Zm13.6-14.942a91.586 91.586 0 0 0-1.448-7.054c-.537-2.212-1.753-6.268-2.225-7.786-.061-.198-.18-.37-.325-.221-1.448 1.472-5.117 1.576-6.002 1.297-.18-.057-.203.149-.186.336.338 3.709 1.207 6.63 1.792 10.27.16.995-.312.893-2.757 3.232-1.272 1.218-4.172 4.888-3.962 5.242.75 1.258 1.829 3.885 2.336 5.246.476 1.279 4.565 5.155 4.902 4.8 2.925-3.09 3.74-4.905 6.371-8.436.629-.843 1.212-2.51 1.629-3.484.424-.993.043-2.397-.125-3.442Zm-7.234 13.924a7.138 7.138 0 0 1-2.242-1.887c-.6-.76-1.059-1.627-1.4-2.533-.34-.904-.566-1.85-.706-2.806a16.244 16.244 0 0 1-.162-2.706c.018-.747.083-1.5.231-2.233.095-.467.21-.982.476-1.386.058-.086.186-.33.186-.33-.069-.103-.218-.005-.3.032-4.66 2.143-8.809 5.44-12.206 6.905.203-.088.519 1.09.766 1.217.988 2.437 1.835 4.906 2.398 7.48.599 2.734 1.064 5.502 1.58 8.253.04.221.216.297.388.27.096.165.302.272.519.158 2.714-1.426 6.244-4.1 10.641-10.074.21-.219.185-.17-.172-.36h.003ZM4.91 66.834c.415.973.808 3.001 1.215 3.97 1.752 4.167 1.576 5.26 5.055 7.733.4.283 5.828-2.904 6.305-4.183.507-1.361 1.587-3.988 2.336-5.246.21-.355-3.404-3.698-4.677-4.917-2.445-2.34-2.203-2.564-2.043-3.557.585-3.64 1.454-6.56 1.792-10.27.017-.187-.005-.393-.186-.336-.886.279-4.554.175-6.002-1.297-.146-.147-.264.023-.325.22-.472 1.519-1.688 5.575-2.225 7.787a91.85 91.85 0 0 0-1.448 7.054c-.168 1.044-.224 2.047.2 3.042h.003Zm5.586 11.04c4.398 5.973 7.927 8.647 10.641 10.075.217.114.423.006.519-.16.17.028.347-.047.389-.269.515-2.751.98-5.519 1.579-8.253.563-2.574 1.41-5.043 2.398-7.48.247-.127.563-1.305.766-1.216-3.397-1.466-8.823-4.888-12.206-6.905-.076-.046-.231-.136-.3-.033 0 0 .129.243.186.33.267.404.38.92.476 1.387.148.734.214 1.485.231 2.232.021.905-.032 1.81-.162 2.706-.14.956-.366 1.902-.706 2.806-.341.906-.799 1.773-1.4 2.533a7.137 7.137 0 0 1-2.242 1.888c-.356.189-.381.14-.172.359h.003Z"/>
    <path fill="#090949" d="m12.417 62.782-.088 1.613c-.015.251.375.25.39 0l.088-1.612c.014-.252-.376-.25-.39 0Zm2.996 15.428a26.275 26.275 0 0 1 1.649 6.647c.027.247.419.25.39 0a26.602 26.602 0 0 0-1.663-6.75c-.091-.232-.469-.13-.376.103Zm33.065.874a83.794 83.794 0 0 1-.593 6.196c-.034.248.358.246.39 0 .275-2.058.473-4.124.593-6.196.014-.251-.376-.25-.39 0ZM26.324 97.601a34.491 34.491 0 0 0 2.149 3.012c.156.196.43-.082.276-.276a33.35 33.35 0 0 1-2.088-2.933c-.134-.212-.472-.015-.337.197Zm29.067-34.819.088 1.613c.015.25.405.251.39 0l-.088-1.613c-.014-.25-.404-.25-.39 0ZM35.126 97.247a29.22 29.22 0 0 0 6.06 3.436c.23.098.33-.281.103-.376a28.892 28.892 0 0 1-5.965-3.396c-.203-.15-.397.19-.197.337l-.001-.001Z"/>
    <path fill="#fff" d="M63.632 7.28 32.277 1.205a1.3 1.3 0 0 0-1.524 1.03L22.656 44.08a1.301 1.301 0 0 0 1.03 1.525l31.355 6.077a1.3 1.3 0 0 0 1.524-1.03l8.097-41.846a1.302 1.302 0 0 0-1.03-1.525Z"/>
    <mask id="b" width="38" height="47" x="25" y="3" maskUnits="userSpaceOnUse" style="mask-type:luminance">
      <path fill="#fff" d="M61.615 9.268 33.37 3.793a.52.52 0 0 0-.61.412l-7.503 38.78a.52.52 0 0 0 .412.61l28.245 5.474a.52.52 0 0 0 .61-.413l7.503-38.778a.52.52 0 0 0-.412-.61Z"/>
    </mask>
    <g mask="url(#b)">
      <path fill="#090949" d="M62.972 8.282 23.328 44.96l.353.382L63.325 8.664l-.353-.382Zm8.657 8.142L31.985 53.1l.353.382 39.644-36.677-.353-.382ZM54.32.143 14.676 36.819l.353.383L54.673.525 54.32.143Z"/>
      <path fill="#090949" d="m32.339 1.878-.472.22 23.056 49.35.471-.221L32.34 1.878Zm-9.055 9.062-.471.221L45.868 60.51l.472-.22-23.056-49.35ZM41.393-7.186l-.471.22 23.056 49.349.47-.22-23.055-49.35Z"/>
    </g>
    <path fill="#090949" d="M54.069 49.136c-.05 0-.1-.005-.15-.014l-28.244-5.476a.781.781 0 0 1-.618-.915l7.428-38.367a.774.774 0 0 1 .329-.499.776.776 0 0 1 .585-.12l28.244 5.477c.423.082.7.492.618.915l-7.428 38.366a.774.774 0 0 1-.328.499.771.771 0 0 1-.436.134ZM33.249 4.252a.258.258 0 0 0-.254.21L25.567 42.83a.26.26 0 0 0 .206.305l28.244 5.476a.258.258 0 0 0 .304-.207l7.428-38.367a.26.26 0 0 0-.206-.304L33.3 4.256a.335.335 0 0 0-.05-.005v.001Z"/>
    <path fill="#F2F2F8" d="M44.587 41.905h-14.44l-6.815-1.319 6.353-32.818h14.902c.718 0 1.3.584 1.3 1.302v31.533c0 .719-.582 1.302-1.3 1.302Z" style="mix-blend-mode:multiply"/>
    <path fill="#090949" d="M34.945 66.806c-.848.787-2.347.833-3.309.226-.138-.087-.265.132-.127.22 1.063.668 2.683.598 3.615-.266.12-.111-.06-.29-.178-.179l-.001-.001Z"/>
    <path fill="#0C044C" d="M30.544 59.386a.108.108 0 0 1-.05-.01.13.13 0 0 1-.07-.17c.215-.519.65-.757 1.29-.709a.13.13 0 0 1-.02.26c-.53-.041-.858.133-1.03.548a.131.131 0 0 1-.12.081Zm5.273-.029a.127.127 0 0 1-.11-.063c-.277-.455-.61-.62-1.047-.516a.13.13 0 0 1-.156-.098.13.13 0 0 1 .097-.156c.545-.128.992.086 1.328.635a.13.13 0 0 1-.043.178.127.127 0 0 1-.068.02Zm-2.95 3.647h-.013c-.06-.007-.584-.07-.733-.378-.047-.097-.076-.259.06-.474.515-.808.504-1.306.504-1.312a.132.132 0 0 1 .125-.135.13.13 0 0 1 .135.124c0 .023.02.576-.543 1.463-.087.136-.058.2-.047.22.068.142.384.218.525.233a.13.13 0 0 1-.013.26v-.001Zm1.411-1.595a.13.13 0 0 1-.113-.194c.008-.015.207-.358.56-.401.235-.029.47.08.7.324a.13.13 0 1 1-.188.178c-.17-.18-.33-.263-.48-.245-.221.026-.364.27-.366.271a.13.13 0 0 1-.113.065v.002Zm-2.71-.271a.13.13 0 0 1-.119-.063c-.22-.36-.703-.12-.724-.109a.131.131 0 0 1-.176-.056.13.13 0 0 1 .056-.174c.247-.128.788-.249 1.066.204a.13.13 0 0 1-.043.178.129.129 0 0 1-.06.02Z"/>
    <path fill="#fff" d="M32.98 63.8c-.183.014-1.205.045-1.158.317.082.48.268 1.053.918 1.113.864.08 1.39.02 1.728-.43.144-.186.219-.503.233-.758.013-.233-1.265-.28-1.722-.244l.002.002Z"/>
    <path fill="#090949" d="M5.927 8.135a.257.257 0 0 1-.195-.088A3.829 3.829 0 0 0 3.953 6.91a.26.26 0 0 1 .146-.5 4.344 4.344 0 0 1 2.023 1.293.26.26 0 0 1-.195.432Zm-.12 3.775a.253.253 0 0 1-.153-.049c-.628-.454-1.763-.458-2.608-.261a.26.26 0 0 1-.119-.506c.891-.209 2.219-.243 3.032.346a.26.26 0 0 1-.152.47Zm4.325-4.987a.258.258 0 0 1-.252-.2 13.16 13.16 0 0 0-.65-2.01.26.26 0 0 1 .48-.2c.28.676.508 1.379.676 2.09a.262.262 0 0 1-.254.32Z"/>
    <path fill="#fff" d="M42.39 10.078H10.454c-.718 0-1.3.583-1.3 1.302v31.964a1.3 1.3 0 0 0 1.3 1.301H42.39a1.3 1.3 0 0 0 1.3-1.301V11.38a1.3 1.3 0 0 0-1.3-1.302Z"/>
    <mask id="c" width="31" height="31" x="11" y="12" maskUnits="userSpaceOnUse" style="mask-type:luminance">
      <path fill="#fff" d="M40.805 12.442h-28.77a.52.52 0 0 0-.52.52v28.794c0 .288.233.52.52.52h28.77a.52.52 0 0 0 .52-.52V12.963a.52.52 0 0 0-.52-.52Z"/>
    </mask>
    <g mask="url(#c)">
      <path fill="#090949" d="m41.139 12.274-29.81 29.835.367.368 29.81-29.835-.367-.368ZM33.611 3.67 3.802 33.504l.368.368L33.98 4.037l-.367-.369Zm14.172 17.126-29.81 29.836.367.368 29.811-29.835-.368-.369Z"/>
      <path fill="#090949" d="m11.508 12.009-.367.368 29.81 29.835.368-.368-29.81-29.835Zm8.598-7.535-.368.369L49.55 34.678l.368-.368-29.81-29.836ZM2.993 18.657l-.368.368 29.81 29.835.369-.368L2.993 18.657Z"/>
    </g>
    <path fill="#090949" d="M40.804 42.54h-28.77c-.43 0-.78-.35-.78-.782V12.965c0-.43.35-.78.78-.78h28.77c.43 0 .78.35.78.78v28.793c0 .431-.35.781-.78.781Zm-28.77-29.836a.261.261 0 0 0-.26.26v28.793c0 .143.117.26.26.26h28.77a.26.26 0 0 0 .26-.26V12.964a.26.26 0 0 0-.26-.26h-28.77Z"/>
    <path fill="#BCBCCC" d="M10.023 37.147a.912.912 0 1 0-1.79-.347l-.815 4.21a.912.912 0 1 0 1.79.348l.815-4.211Zm49.686 2.267a.912.912 0 1 0-1.822.079l.185 4.285a.912.912 0 1 0 1.821-.08l-.184-4.284Z"/>
    <path fill="#090949" d="M8.978 42.41c-.01 0-.018 0-.028-.002a.13.13 0 0 1-.1-.155l.535-2.516a.13.13 0 0 1 .155-.1.13.13 0 0 1 .1.155l-.535 2.516a.13.13 0 0 1-.127.102Zm49.142 1.166a.13.13 0 0 1-.163-.121l-.105-2.57a.13.13 0 0 1 .125-.135.13.13 0 0 1 .135.125l.105 2.57a.13.13 0 0 1-.097.13Z"/>
  </g>
  <defs>
    <clipPath id="a">
      <path fill="#fff" d="M0 0h72v132.522H0z"/>
    </clipPath>
  </defs>
</svg>
