<svg xmlns="http://www.w3.org/2000/svg" width="72" height="109" fill="none" viewBox="0 0 72 109">
  <circle cx="35.634" cy="81.918" r="11.755" fill="#BCBCCC"/>
  <path fill="#EBF0E9" d="M35.755 67.935c6.492 0 11.755 5.263 11.755 11.755 0 6.493-5.263 11.755-11.755 11.755C29.263 91.445 24 86.182 24 79.69c0-6.492 5.263-11.754 11.755-11.755Z"/>
  <path fill="#090949" d="m27.825 63.354-11.471 7.647-.375-10.507a10.63 10.63 0 0 1 3.302-8.087l7.451-7.078 1.093 18.025Zm16.555 0 11.471 7.647.376-10.507a10.63 10.63 0 0 0-3.302-8.087l-7.452-7.078-1.092 18.025Z"/>
  <path fill="#fff" d="M36.105 62.808c3.1 0 6.103.43 8.996 1.165 2.283-7.883 3.567-16.583 3.567-25.745 0-17.847-4.808-26.595-12.563-38.228C28.35 11.633 23.54 20.38 23.54 38.228c0 9.163 1.284 17.861 3.567 25.746 2.893-.736 5.895-1.165 8.996-1.165Z"/>
  <path fill="#090949" d="M34.27 48.06h3.669c.335 0 .606.271.606.606v22.335h-4.882V48.666c0-.335.271-.606.606-.606Zm1.835-16.113a5.053 5.053 0 1 0 0-10.106 5.053 5.053 0 0 0 0 10.105Z"/>
  <path fill="#396E1F" d="M49.408 80c7.608 0 13.776 6.167 13.776 13.775 0 .177-.004.352-.011.527a.375.375 0 0 0 .372.392h1.66a6.796 6.796 0 1 1 0 13.592H6.794a6.796 6.796 0 0 1 0-13.592h1.66c.213 0 .38-.18.372-.392-.007-.175-.01-.35-.01-.527C8.816 86.167 14.983 80 22.591 80c5.97 0 11.053 3.798 12.965 9.11.131.364.755.364.886 0C38.355 83.797 43.438 80 49.408 80Z"/>
</svg>
