<svg width="65" height="64" viewBox="0 0 65 64" fill="none" xmlns="http://www.w3.org/2000/svg">
<g id="broadcast_on_personal">
<mask id="mask0_133_11959" style="mask-type:alpha" maskUnits="userSpaceOnUse" x="0" y="0" width="65" height="64">
<rect id="Bounding box" x="0.5" width="64" height="64" fill="#D9D9D9"/>
</mask>
<g mask="url(#mask0_133_11959)">
<path id="broadcast_on_personal_2" d="M7.16602 52V22L27.166 7L43.7047 19.3233C42.7847 19.3847 41.8965 19.5051 41.04 19.6847C40.184 19.8642 39.3458 20.1164 38.5254 20.4413L27.166 12L11.166 24V48H26.5607C26.8585 48.7382 27.208 49.4364 27.6094 50.0947C28.0111 50.7529 28.4378 51.388 28.8893 52H7.16602ZM34.1047 52.164C32.4807 50.5267 31.2089 48.6551 30.2894 46.5493C29.3694 44.444 28.9093 42.2609 28.9093 40C28.9093 35.2702 30.5578 31.2673 33.8547 27.9913C37.1516 24.7149 41.1425 23.0767 45.8274 23.0767C50.5558 23.0767 54.5594 24.7149 57.838 27.9913C61.1167 31.2673 62.756 35.2702 62.756 40C62.756 42.2667 62.3209 44.4556 61.4507 46.5667C60.5805 48.6778 59.2976 50.5213 57.602 52.0973L55.376 49.846C56.7676 48.5402 57.8156 47.0347 58.52 45.3293C59.224 43.624 59.576 41.8476 59.576 40C59.576 36.152 58.2469 32.8993 55.5887 30.242C52.9305 27.5851 49.6762 26.2567 45.826 26.2567C42.022 26.2567 38.7816 27.5851 36.1047 30.242C33.4278 32.8993 32.0893 36.152 32.0893 40C32.0893 41.8529 32.4593 43.6376 33.1994 45.354C33.9394 47.07 34.9916 48.5896 36.356 49.9127L34.1047 52.164ZM38.812 47.4307C37.8174 46.4258 37.0293 45.2871 36.448 44.0147C35.8667 42.7422 35.576 41.404 35.576 40C35.576 37.1369 36.5798 34.7118 38.5873 32.7247C40.5949 30.7371 43.0082 29.7433 45.8274 29.7433C48.6891 29.7433 51.1149 30.7371 53.1047 32.7247C55.0945 34.7118 56.0893 37.1369 56.0893 40C56.0893 41.3947 55.8167 42.7322 55.2714 44.0127C54.726 45.2931 53.9336 46.4273 52.894 47.4153L50.6174 45.1793C51.3422 44.506 51.9056 43.7227 52.3074 42.8293C52.7087 41.936 52.9094 40.9929 52.9094 40C52.9094 38.0187 52.2253 36.3438 50.8573 34.9753C49.4889 33.6073 47.814 32.9233 45.8327 32.9233C43.8633 32.9233 42.1916 33.6073 40.8173 34.9753C39.4431 36.3438 38.756 38.0187 38.756 40C38.756 40.9867 38.9678 41.924 39.3913 42.812C39.8153 43.6996 40.3813 44.4802 41.0893 45.154L38.812 47.4307ZM44.2427 55.59V42.436C43.8427 42.1489 43.5205 41.7891 43.276 41.3567C43.0316 40.9242 42.9094 40.472 42.9094 40C42.9094 39.1813 43.2013 38.4896 43.7853 37.9247C44.3689 37.3593 45.0496 37.0767 45.8274 37.0767C46.6447 37.0767 47.3371 37.3593 47.9047 37.9247C48.4722 38.4896 48.756 39.1813 48.756 40C48.756 40.472 48.6516 40.9267 48.4427 41.364C48.2342 41.8018 47.8942 42.1591 47.4227 42.436V55.59H44.2427Z" fill="#396E1F"/>
</g>
</g>
</svg>
