<svg width="180" height="40" viewBox="0 0 180 40" fill="none" xmlns="http://www.w3.org/2000/svg">
  <path d="M40 20C40 31.0457 31.0457 40 20 40C8.9543 40 0 31.0457 0 20C0 8.9543 8.9543 0 20 0C31.0457 0 40 8.9543 40 20Z" fill="#396E1F" opacity="0.2"/>
  <path d="M20 35C28.2843 35 35 28.2843 35 20C35 11.7157 28.2843 5 20 5C11.7157 5 5 11.7157 5 20C5 28.2843 11.7157 35 20 35Z" fill="#396E1F" opacity="0.4"/>
  <path d="M20 30C25.5228 30 30 25.5228 30 20C30 14.4772 25.5228 10 20 10C14.4772 10 10 14.4772 10 20C10 25.5228 14.4772 30 20 30Z" fill="#396E1F"/>
  <path d="M66.5 20.5V28H64V13H66.5V14.5C67.3 13.5 68.5 12.8 70 12.8C73 12.8 75 15 75 18.5V28H72.5V19C72.5 16.5 71.3 15 69 15C67.5 15 66.5 16 66.5 20.5Z" fill="#090949"/>
  <path d="M77 20.5C77 16 80 13 84 13C88 13 91 16 91 20.5C91 25 88 28 84 28C80 28 77 25 77 20.5ZM88.5 20.5C88.5 17.5 86.5 15.5 84 15.5C81.5 15.5 79.5 17.5 79.5 20.5C79.5 23.5 81.5 25.5 84 25.5C86.5 25.5 88.5 23.5 88.5 20.5Z" fill="#090949"/>
  <path d="M93 13H95.5V15C96.3 13.7 97.8 12.8 99.5 12.8C102.5 12.8 104.5 15 104.5 18.5V28H102V19C102 16.5 100.8 15 98.5 15C96.3 15 95.5 16.5 95.5 19V28H93V13Z" fill="#090949"/>
  <path d="M107 13H109.5V28H107V13ZM107 8H109.5V11H107V8Z" fill="#090949"/>
  <path d="M113 20.5C113 16 116 13 120 13C124 13 127 16 127 20.5C127 25 124 28 120 28C116 28 113 25 113 20.5ZM124.5 20.5C124.5 17.5 122.5 15.5 120 15.5C117.5 15.5 115.5 17.5 115.5 20.5C115.5 23.5 117.5 25.5 120 25.5C122.5 25.5 124.5 23.5 124.5 20.5Z" fill="#090949"/>
  <path d="M129 13H131.5V15C132.3 13.7 133.8 12.8 135.5 12.8C138.5 12.8 140.5 15 140.5 18.5V28H138V19C138 16.5 136.8 15 134.5 15C132.3 15 131.5 16.5 131.5 19V28H129V13Z" fill="#090949"/>
  <path d="M143 13H145.5V28H143V13ZM143 8H145.5V11H143V8Z" fill="#090949"/>
  <path d="M148 20.5C148 16 151 13 155 13C159 13 162 16 162 20.5C162 25 159 28 155 28C151 28 148 25 148 20.5ZM159.5 20.5C159.5 17.5 157.5 15.5 155 15.5C152.5 15.5 150.5 17.5 150.5 20.5C150.5 23.5 152.5 25.5 155 25.5C157.5 25.5 159.5 23.5 159.5 20.5Z" fill="#090949"/>
  <path d="M164 13H166.5V15C167.3 13.7 168.8 12.8 170.5 12.8C173.5 12.8 175.5 15 175.5 18.5V28H173V19C173 16.5 171.8 15 169.5 15C167.3 15 166.5 16.5 166.5 19V28H164V13Z" fill="#090949"/>
  <path d="M177 25.5L178.5 23.5C179.5 24.5 181 25.5 183 25.5C185 25.5 186 24.5 186 23.5C186 19 177 22 177 16.5C177 14 179 12.8 182 12.8C184 12.8 186 13.5 187.5 15L186 17C185 16 183.5 15.3 182 15.3C180 15.3 179.5 16.3 179.5 17C179.5 21.5 188.5 18.5 188.5 24C188.5 26.5 186.5 28 183 28C180.5 28 178.5 27 177 25.5Z" fill="#396E1F"/>
</svg>
