<?xml version="1.0" encoding="UTF-8"?>
<svg width="178" height="40" viewBox="0 0 178 40" fill="none" xmlns="http://www.w3.org/2000/svg">
  <!-- Simple placeholder logo for Second Nature -->
  <rect width="178" height="40" fill="white"/>
  <path d="M14.5 10C11.4624 10 9 12.4624 9 15.5C9 18.5376 11.4624 21 14.5 21H23.5C24.3284 21 25 21.6716 25 22.5C25 23.3284 24.3284 24 23.5 24H10.5C9.67157 24 9 24.6716 9 25.5C9 26.3284 9.67157 27 10.5 27H23.5C25.9853 27 28 24.9853 28 22.5C28 20.0147 25.9853 18 23.5 18H14.5C13.1193 18 12 16.8807 12 15.5C12 14.1193 13.1193 13 14.5 13H26.5C27.3284 13 28 12.3284 28 11.5C28 10.6716 27.3284 10 26.5 10H14.5Z" fill="#396E1F"/>
  <path d="M34 10C32.8954 10 32 10.8954 32 12V25C32 26.1046 32.8954 27 34 27C35.1046 27 36 26.1046 36 25V12C36 10.8954 35.1046 10 34 10Z" fill="#396E1F"/>
  <path d="M42 10C40.8954 10 40 10.8954 40 12V25C40 26.1046 40.8954 27 42 27H53C54.1046 27 55 26.1046 55 25C55 23.8954 54.1046 23 53 23H44V12C44 10.8954 43.1046 10 42 10Z" fill="#396E1F"/>
  <path d="M61 10C59.8954 10 59 10.8954 59 12V25C59 26.1046 59.8954 27 61 27H72C73.1046 27 74 26.1046 74 25C74 23.8954 73.1046 23 72 23H63V20H69C70.1046 20 71 19.1046 71 18C71 16.8954 70.1046 16 69 16H63V14H72C73.1046 14 74 13.1046 74 12C74 10.8954 73.1046 10 72 10H61Z" fill="#396E1F"/>
  <path d="M80 10C78.8954 10 78 10.8954 78 12V25C78 26.1046 78.8954 27 80 27H91C92.1046 27 93 26.1046 93 25C93 23.8954 92.1046 23 91 23H82V12C82 10.8954 81.1046 10 80 10Z" fill="#396E1F"/>
  <path d="M99 10C97.8954 10 97 10.8954 97 12V25C97 26.1046 97.8954 27 99 27H110C111.105 27 112 26.1046 112 25C112 23.8954 111.105 23 110 23H101V12C101 10.8954 100.105 10 99 10Z" fill="#396E1F"/>
  <path d="M118 10C116.895 10 116 10.8954 116 12V25C116 26.1046 116.895 27 118 27H129C130.105 27 131 26.1046 131 25C131 23.8954 130.105 23 129 23H120V20H126C127.105 20 128 19.1046 128 18C128 16.8954 127.105 16 126 16H120V14H129C130.105 14 131 13.1046 131 12C131 10.8954 130.105 10 129 10H118Z" fill="#396E1F"/>
  <path d="M137 10C135.895 10 135 10.8954 135 12V25C135 26.1046 135.895 27 137 27H148C149.105 27 150 26.1046 150 25C150 23.8954 149.105 23 148 23H139V12C139 10.8954 138.105 10 137 10Z" fill="#396E1F"/>
  <path d="M156 10C154.895 10 154 10.8954 154 12V25C154 26.1046 154.895 27 156 27H167C168.105 27 169 26.1046 169 25C169 23.8954 168.105 23 167 23H158V12C158 10.8954 157.105 10 156 10Z" fill="#396E1F"/>
</svg>
